<?xml version="1.0" encoding="UTF-8"?>
<svg width="197px" height="40px" viewBox="0 0 197 40" version="1.1" xmlns="http://www.w3.org/2000/svg" xmlns:xlink="http://www.w3.org/1999/xlink">
    <title>Group</title>
    <defs>
        <linearGradient x1="1.07421875%" y1="1.07421875%" x2="100%" y2="100%" id="linearGradient-1">
            <stop stop-color="#FF8945" offset="0%"></stop>
            <stop stop-color="#FF22A7" offset="100%"></stop>
        </linearGradient>
    </defs>
    <g id="Symbols" stroke="none" stroke-width="1" fill="none" fill-rule="evenodd">
        <g id="Group">
            <g>
                <path d="M10,1.42108547e-14 L30,1.42108547e-14 C35.5228475,1.31963241e-14 40,4.4771525 40,10 L40,30 C40,35.5228475 35.5228475,40 30,40 L10,40 C4.4771525,40 6.76353751e-16,35.5228475 0,30 L0,10 C-6.76353751e-16,4.4771525 4.4771525,1.52253853e-14 10,1.42108547e-14 Z" id="Rectangle" fill="url(#linearGradient-1)" transform="translate(20.000000, 20.000000) rotate(-270.000000) translate(-20.000000, -20.000000) "></path>
                <path d="M26.8608589,22.2516854 C24.6203814,18.6138742 15.701371,16.9637936 16.0265793,12.7905031 C16.2798266,9.52399765 20.8451975,9.84016846 20.8451975,9.84016846 C20.8451975,9.84016846 13.6684732,9.07498311 12.6693226,14.2240115 C11.6438785,19.5039682 22.3107106,21.4993603 23.8011333,24.614963 C26.1841489,29.5988601 18.5618201,30.0785204 18.5618201,30.0785204 C26.777827,30.4585821 28.7567541,25.329665 26.8608589,22.2516854 Z" id="Combined-Shape" fill="#FFFFFF"></path>
                <path d="M14.1293002,22.5478818 C14.0891681,23.3360514 14.0794811,24.0521215 14.1666646,24.717161 C14.2510804,25.3808324 14.4420537,25.9661109 14.7644943,26.4664297 C14.9277904,26.7158366 15.1146122,26.9553931 15.3401822,27.1756592 C15.5699038,27.3922314 15.8176156,27.6082564 16.0999241,27.8033493 C16.234159,27.9104725 16.3891519,27.9939273 16.5330739,28.0987247 C16.6839152,28.1932613 16.8389081,28.2861562 16.9952848,28.386302 C17.1544293,28.4768711 17.3163415,28.5734598 17.4796376,28.6745633 C17.6457014,28.7663637 17.8131491,28.8688353 17.9805967,28.9823886 C17.7287333,29.025621 17.4727183,29.0469635 17.2180871,29.0469635 C16.6742281,29.0469635 16.1303691,28.9498276 15.6003488,28.7587022 L15.3097371,28.645833 C15.2142504,28.6020534 15.1229154,28.5511596 15.0274287,28.5035492 L14.8862744,28.4299448 C14.8406069,28.4031298 14.7977071,28.3718 14.7520395,28.342796 C14.6634721,28.2823255 14.5721371,28.226096 14.4849536,28.1605634 C14.141755,27.8973386 13.8303854,27.5702229 13.5923606,27.1927606 C13.3515681,26.8169401 13.188272,26.3925516 13.1052401,25.9643324 C13.023592,25.5351555 13.0194404,25.1026951 13.0817144,24.6915773 C13.1453722,24.2801858 13.2685361,23.8882216 13.4415193,23.5256718 C13.618654,23.1657214 13.8359208,22.8256086 14.1293002,22.5478818 Z M22.4463293,10.7472271 C22.9888045,10.7472271 23.5340473,10.8442262 24.0640676,11.0354884 L24.3546793,11.1484945 C24.4487821,11.1920005 24.5415011,11.2428942 24.6356039,11.2907782 L24.7767581,11.364109 C24.8238096,11.3910608 24.8667094,11.4222538 24.9123769,11.4513946 C25.0009443,11.5118652 25.0922794,11.5679578 25.178079,11.6336272 C25.5226614,11.8969888 25.8326472,12.2239677 26.0720559,12.60143 C26.3128484,12.9771137 26.4761445,13.4017758 26.5591764,13.8297214 C26.6408244,14.2590351 26.6435921,14.6916323 26.5813182,15.1026133 C26.5176604,15.5141416 26.3958803,15.905969 26.2228971,16.2685188 C26.0457624,16.6283324 25.8284956,16.968582 25.5351162,17.2461721 C25.5752483,16.458276 25.5849353,15.7420691 25.4977518,15.0771664 C25.4133361,14.4133582 25.2223627,13.8280797 24.8999221,13.3277609 C24.7366261,13.078354 24.5498043,12.8387975 24.3242343,12.6183946 C24.0931288,12.4019592 23.8468008,12.186071 23.5631085,11.9909782 C23.4302574,11.883855 23.2752645,11.8002633 23.1313426,11.6954659 C22.9805013,11.6010661 22.8255084,11.5080344 22.6691316,11.4078886 C22.5086033,11.3173196 22.3480749,11.2207308 22.1847788,11.1194905 C22.0173312,11.0278269 21.8512674,10.9254921 21.6824358,10.8116652 C21.9356831,10.7685696 22.1903143,10.7472271 22.4463293,10.7472271 Z" id="Combined-Shape" fill="#FFFFFF" opacity="0.5"></path>
            </g>
            <path d="M81.2518629,17.2329856 C83.8946846,17.2329856 85.9215102,19.5976155 85.9215102,22.4192747 C85.9215102,25.2409339 83.8946846,27.6055638 81.2518629,27.6055638 C79.9614272,27.6055638 78.9526211,26.9894991 78.4573749,26.3868945 L78.3705912,26.2742176 L78.3705912,31.5399901 L75.6482861,31.5399901 L75.6482861,17.4515648 L78.3705912,17.4515648 L78.3705912,18.5643318 C78.8276205,17.928465 79.880775,17.2329856 81.2518629,17.2329856 Z M56.7511177,13.0402385 C59.7913562,13.0402385 61.5996026,15.2260308 61.6989568,17.3323398 L61.6989568,17.3323398 L58.8375559,17.3323398 C58.5196225,16.1400894 57.585693,15.7029309 56.7511177,15.7029309 C55.7377049,15.7029309 54.9428713,16.1798311 54.9230005,17.0144064 C54.9031297,17.8887233 55.5389965,18.3656234 56.6915052,18.7034277 L56.6915052,18.7034277 L58.3407849,19.160457 C60.6259314,19.7963239 61.9970194,21.2468952 61.9970194,23.4326875 C61.9970194,25.8370591 60.0496771,27.6254347 57.088922,27.6254347 C53.7108793,27.6254347 51.7834078,25.3402881 51.6641828,23.0153999 L51.6641828,23.0153999 L54.5454545,23.0153999 C54.7441629,24.2871336 55.8370591,24.9627422 57.088922,24.9627422 C58.2414307,24.9627422 59.0958768,24.4262295 59.0958768,23.5320417 C59.0958768,22.7769498 58.5593641,22.2006955 57.208147,21.8231495 L57.208147,21.8231495 L55.7178341,21.3859911 C53.4923,20.7501242 52.0417288,19.3591654 52.0218579,17.2131148 C52.0019871,14.6100348 53.9294585,13.0402385 56.7511177,13.0402385 Z M191.256831,17.2329856 C194.109913,17.2329856 196.470105,19.2235085 196.448723,22.7971916 L196.44312,23.0551416 L188.693492,23.0551416 C188.812717,24.2275211 189.687034,25.2409339 191.376056,25.2409339 C192.266269,25.2409339 193.052625,24.87743 193.412007,24.2796681 L193.482365,24.1480378 L196.323895,24.1480378 C195.727769,26.1549925 193.760556,27.6055638 191.23696,27.6055638 C188.196721,27.6055638 186.0308,25.4197715 186.0308,22.3994039 C186.0308,19.4386488 188.236463,17.2329856 191.256831,17.2329856 Z M150.740189,17.2329856 C153.621461,17.2329856 155.96622,19.5181321 155.96622,22.4192747 C155.96622,25.3204173 153.621461,27.6055638 150.740189,27.6055638 C147.858917,27.6055638 145.514158,25.3204173 145.514158,22.4192747 C145.514158,19.5181321 147.858917,17.2329856 150.740189,17.2329856 Z M170.094386,17.2329856 C171.384822,17.2329856 172.393628,17.8490504 172.872308,18.4516549 L172.955787,18.5643318 L172.955787,17.4515648 L175.678092,17.4515648 L175.678092,27.3869846 L172.955787,27.3869846 L172.955787,26.2742176 C172.518629,26.9100845 171.465474,27.6055638 170.094386,27.6055638 C167.451565,27.6055638 165.424739,25.2409339 165.424739,22.4192747 C165.424739,19.5976155 167.451565,17.2329856 170.094386,17.2329856 Z M92.4987581,17.2329856 C95.3518409,17.2329856 97.7120324,19.2235085 97.6906503,22.7971916 L97.6850472,23.0551416 L89.9354198,23.0551416 C90.0546448,24.2275211 90.9289617,25.2409339 92.6179831,25.2409339 C93.5081967,25.2409339 94.2945521,24.87743 94.6539346,24.2796681 L94.7242921,24.1480378 L97.5658222,24.1480378 C96.969697,26.1549925 95.0024839,27.6055638 92.4788872,27.6055638 C89.4386488,27.6055638 87.2727273,25.4197715 87.2727273,22.3994039 C87.2727273,19.4386488 89.4783905,17.2329856 92.4987581,17.2329856 Z M66.5673125,17.4515648 L66.5673125,22.757079 C66.5673125,24.247392 67.0839543,25.1217089 68.2563338,25.1217089 C69.468455,25.1217089 70.3030303,24.2275211 70.3030303,22.3000497 L70.3030303,22.3000497 L70.3030303,17.4515648 L73.0253353,17.4515648 L73.0253353,27.3869846 L70.3030303,27.3869846 L70.3030303,26.2543467 C69.7863885,27.0491803 68.852459,27.6055638 67.5807253,27.6055638 C65.1763537,27.6055638 63.8450075,25.85693 63.8450075,23.2141083 L63.8450075,23.2141083 L63.8450075,17.4515648 L66.5673125,17.4515648 Z M161.450571,14.6895181 L161.450571,17.4515648 L164.25236,17.4515648 L164.25236,19.8360656 L161.450571,19.8360656 L161.450571,23.373075 C161.450571,24.5851962 161.967213,25.0620964 163.139593,25.0620964 C163.576751,25.0620964 163.934426,25.0024839 164.25236,24.8832588 L164.25236,24.8832588 L164.25236,27.2876304 C163.815201,27.4267263 163.278689,27.5062096 162.523597,27.5062096 C160.417288,27.5062096 158.728266,26.3338301 158.728266,23.9095877 L158.728266,23.9095877 L158.728266,19.8360656 L156.721311,19.8360656 L156.721311,17.4515648 L158.728266,17.4515648 L158.728266,14.6895181 L161.450571,14.6895181 Z M182.056632,14.6895181 L182.056632,17.4515648 L184.85842,17.4515648 L184.85842,19.8360656 L182.056632,19.8360656 L182.056632,23.373075 C182.056632,24.5851962 182.573274,25.0620964 183.745653,25.0620964 C184.182812,25.0620964 184.540487,25.0024839 184.85842,24.8832588 L184.85842,24.8832588 L184.85842,27.2876304 C184.421262,27.4267263 183.884749,27.5062096 183.129657,27.5062096 C181.023348,27.5062096 179.334327,26.3338301 179.334327,23.9095877 L179.334327,23.9095877 L179.334327,19.8360656 L177.327372,19.8360656 L177.327372,17.4515648 L179.334327,17.4515648 L179.334327,14.6895181 L182.056632,14.6895181 Z M139.831098,17.2329856 C142.235469,17.2329856 143.66617,18.9816195 143.66617,21.5648286 L143.66617,21.5648286 L143.66617,27.3869846 L140.943865,27.3869846 L140.943865,22.0218579 C140.943865,20.5911575 140.327869,19.7168405 139.195231,19.7168405 C137.943368,19.7168405 136.989568,20.6308992 136.989568,22.5384998 L136.989568,22.5384998 L136.989568,27.3869846 L134.267263,27.3869846 L134.267263,17.4515648 L136.989568,17.4515648 L136.989568,18.5842027 C137.50621,17.7893691 138.539493,17.2329856 139.831098,17.2329856 Z M127.928465,17.2329856 C130.332837,17.2329856 131.763537,18.9816195 131.763537,21.5648286 L131.763537,21.5648286 L131.763537,27.3869846 L129.041232,27.3869846 L129.041232,22.0218579 C129.041232,20.5911575 128.425236,19.7168405 127.292598,19.7168405 C126.040735,19.7168405 125.086935,20.6308992 125.086935,22.5384998 L125.086935,22.5384998 L125.086935,27.3869846 L122.36463,27.3869846 L122.36463,17.4515648 L125.086935,17.4515648 L125.086935,18.5842027 C125.603577,17.7893691 126.63686,17.2329856 127.928465,17.2329856 Z M104.85842,17.3323398 C105.136612,17.3323398 105.434675,17.3522106 105.772479,17.4515648 L105.772479,17.4515648 L105.772479,20.2136115 C105.355191,20.0745156 104.977645,19.9950323 104.540487,19.9950323 C103.248882,19.9950323 102.394436,21.0084451 102.394436,22.6378539 L102.394436,22.6378539 L102.394436,27.3869846 L99.6721311,27.3869846 L99.6721311,17.4515648 L102.394436,17.4515648 L102.394436,19.041232 C102.73224,18.0675609 103.745653,17.3323398 104.85842,17.3323398 Z M114.952807,13.2786885 L121.053154,27.3869846 L118.032787,27.3869846 L116.661699,24.1679086 L110.660705,24.1679086 L109.289617,27.3869846 L106.308992,27.3869846 L112.389468,13.2786885 L114.952807,13.2786885 Z M170.670641,19.7168405 C169.180328,19.7168405 168.166915,20.8693492 168.166915,22.4192747 C168.166915,23.9692002 169.180328,25.1217089 170.670641,25.1217089 C172.160954,25.1217089 173.174367,23.9692002 173.174367,22.4192747 C173.174367,20.8693492 172.160954,19.7168405 170.670641,19.7168405 Z M80.6557377,19.7168405 C79.1654247,19.7168405 78.1520119,20.8693492 78.1520119,22.4192747 C78.1520119,23.9692002 79.1654247,25.1217089 80.6557377,25.1217089 C82.1460507,25.1217089 83.1594635,23.9692002 83.1594635,22.4192747 C83.1594635,20.8693492 82.1460507,19.7168405 80.6557377,19.7168405 Z M150.740189,19.7764531 C149.309488,19.7764531 148.256334,20.8892201 148.256334,22.4192747 C148.256334,23.9493294 149.309488,25.0620964 150.740189,25.0620964 C152.170889,25.0620964 153.204173,23.9493294 153.204173,22.4192747 C153.204173,20.8892201 152.170889,19.7764531 150.740189,19.7764531 Z M113.661202,17.054148 L111.71386,21.644312 L115.608544,21.644312 L113.661202,17.054148 Z M92.4192747,19.4386488 C91.2332993,19.4386488 90.3861741,20.0985148 90.0806458,21.0972309 L90.034774,21.266766 L94.7044213,21.266766 C94.366617,19.9354198 93.3532042,19.4386488 92.4192747,19.4386488 Z M191.177347,19.4386488 C189.991372,19.4386488 189.144247,20.0985148 188.838718,21.0972309 L188.792846,21.266766 L193.462494,21.266766 C193.12469,19.9354198 192.111277,19.4386488 191.177347,19.4386488 Z" id="Combined-Shape" fill="#000000"></path>
        </g>
    </g>
</svg>