<svg width="20" height="20" viewBox="0 0 20 20" fill="none" xmlns="http://www.w3.org/2000/svg">
<path d="M3.33333 16.6667C2.89131 16.6667 2.46738 16.4911 2.15482 16.1785C1.84226 15.866 1.66667 15.442 1.66667 15V5H0.833333C0.61232 5 0.400358 5.0878 0.244078 5.24408C0.0877974 5.40036 0 5.61232 0 5.83333L0 17.5C0 17.721 0.0877974 17.933 0.244078 18.0893C0.400358 18.2455 0.61232 18.3333 0.833333 18.3333H15.8333C16.0543 18.3333 16.2663 18.2455 16.4226 18.0893C16.5789 17.933 16.6667 17.721 16.6667 17.5V16.6667H3.33333Z" fill="url(#paint0_linear_62_1468)"/>
<path d="M19.1666 1.66663H4.16659C3.94557 1.66663 3.73361 1.75442 3.57733 1.9107C3.42105 2.06698 3.33325 2.27895 3.33325 2.49996V14.1666C3.33325 14.3876 3.42105 14.5996 3.57733 14.7559C3.73361 14.9122 3.94557 15 4.16659 15H19.1666C19.3876 15 19.5996 14.9122 19.7558 14.7559C19.9121 14.5996 19.9999 14.3876 19.9999 14.1666V2.49996C19.9999 2.27895 19.9121 2.06698 19.7558 1.9107C19.5996 1.75442 19.3876 1.66663 19.1666 1.66663ZM14.8224 8.67413L10.6558 11.5908C10.5859 11.6403 10.5023 11.6669 10.4166 11.6666C10.3061 11.6666 10.2001 11.6227 10.122 11.5446C10.0438 11.4664 9.99992 11.3605 9.99992 11.25V5.41663C9.99999 5.34048 10.0209 5.26581 10.0604 5.20073C10.1 5.13565 10.1566 5.08264 10.2241 5.04746C10.2916 5.01166 10.3677 4.99535 10.4439 5.00036C10.5202 5.00536 10.5935 5.03148 10.6558 5.07579L14.8224 7.99246C14.8771 8.03091 14.9217 8.08195 14.9525 8.14127C14.9833 8.20059 14.9994 8.26645 14.9994 8.33329C14.9994 8.40013 14.9833 8.466 14.9525 8.52532C14.9217 8.58464 14.8771 8.63568 14.8224 8.67413Z" fill="url(#paint1_linear_62_1468)"/>
<defs>
<linearGradient id="paint0_linear_62_1468" x1="2.13415" y1="7.84553" x2="11.441" y2="18.4675" gradientUnits="userSpaceOnUse">
<stop stop-color="#FF5B72"/>
<stop offset="1" stop-color="#803DED"/>
</linearGradient>
<linearGradient id="paint1_linear_62_1468" x1="5.4674" y1="4.51215" x2="14.7743" y2="15.1342" gradientUnits="userSpaceOnUse">
<stop stop-color="#FF5B72"/>
<stop offset="1" stop-color="#803DED"/>
</linearGradient>
</defs>
</svg>
