<svg width="24" height="24" viewBox="0 0 24 24" fill="none" xmlns="http://www.w3.org/2000/svg">
<g clip-path="url(#clip0_548_6028)">
<path d="M4 13H11V16H13V13H20V16H22V12C22 11.447 21.553 11 21 11H13V8H11V11H3C2.447 11 2 11.447 2 12V16H4V13Z" fill="url(#paint0_linear_548_6028)"/>
<path d="M3 24C4.65685 24 6 22.6569 6 21C6 19.3431 4.65685 18 3 18C1.34315 18 0 19.3431 0 21C0 22.6569 1.34315 24 3 24Z" fill="url(#paint1_linear_548_6028)"/>
<path d="M12 24C13.6569 24 15 22.6569 15 21C15 19.3431 13.6569 18 12 18C10.3431 18 9 19.3431 9 21C9 22.6569 10.3431 24 12 24Z" fill="url(#paint2_linear_548_6028)"/>
<path d="M21 24C22.6569 24 24 22.6569 24 21C24 19.3431 22.6569 18 21 18C19.3431 18 18 19.3431 18 21C18 22.6569 19.3431 24 21 24Z" fill="url(#paint3_linear_548_6028)"/>
<path d="M10 6H14C14.553 6 15 5.553 15 5V1C15 0.447 14.553 0 14 0H10C9.447 0 9 0.447 9 1V5C9 5.553 9.447 6 10 6Z" fill="url(#paint4_linear_548_6028)"/>
</g>
<defs>
<linearGradient id="paint0_linear_548_6028" x1="4.56098" y1="9.70732" x2="8.7018" y2="19.1592" gradientUnits="userSpaceOnUse">
<stop stop-color="#FF5B72"/>
<stop offset="1" stop-color="#803DED"/>
</linearGradient>
<linearGradient id="paint1_linear_548_6028" x1="0.768293" y1="19.2805" x2="4.97561" y2="23.122" gradientUnits="userSpaceOnUse">
<stop stop-color="#FF5B72"/>
<stop offset="1" stop-color="#803DED"/>
</linearGradient>
<linearGradient id="paint2_linear_548_6028" x1="9.76829" y1="19.2805" x2="13.9756" y2="23.122" gradientUnits="userSpaceOnUse">
<stop stop-color="#FF5B72"/>
<stop offset="1" stop-color="#803DED"/>
</linearGradient>
<linearGradient id="paint3_linear_548_6028" x1="18.7683" y1="19.2805" x2="22.9756" y2="23.122" gradientUnits="userSpaceOnUse">
<stop stop-color="#FF5B72"/>
<stop offset="1" stop-color="#803DED"/>
</linearGradient>
<linearGradient id="paint4_linear_548_6028" x1="9.76829" y1="1.28049" x2="13.9756" y2="5.12195" gradientUnits="userSpaceOnUse">
<stop stop-color="#FF5B72"/>
<stop offset="1" stop-color="#803DED"/>
</linearGradient>
<clipPath id="clip0_548_6028">
<rect width="24" height="24" fill="white"/>
</clipPath>
</defs>
</svg>
