<svg width="20" height="20" viewBox="0 0 20 20" fill="none" xmlns="http://www.w3.org/2000/svg">
<g clip-path="url(#clip0_62_1482)">
<path d="M15.2442 0.244167L8.54751 6.94083C4.58918 5.77083 0.408348 8.4375 -0.00748497 12.775C-0.260818 15.4158 1.15668 18.0242 3.51085 19.2475C7.37668 21.2567 11.8883 19.1992 13.0592 15.2408C13.425 14.0042 13.425 12.6892 13.0592 11.4525L14.7558 9.75583C14.9125 9.59917 15 9.3875 15 9.16667V7.5C15 7.04 15.3733 6.66667 15.8333 6.66667H17.5C17.7208 6.66667 17.9333 6.57917 18.0892 6.4225L19.7558 4.75583C19.9125 4.59917 20 4.3875 20 4.16667V0.833333C20 0.373333 19.6267 0 19.1667 0H15.8333C15.6125 0 15.4 0.0875 15.2442 0.244167ZM6.66668 15.8333C5.28585 15.8333 4.16668 14.7142 4.16668 13.3333C4.16668 11.9525 5.28585 10.8333 6.66668 10.8333C8.04751 10.8333 9.16668 11.9525 9.16668 13.3333C9.16668 14.7142 8.04751 15.8333 6.66668 15.8333Z" fill="url(#paint0_linear_62_1482)"/>
</g>
<defs>
<linearGradient id="paint0_linear_62_1482" x1="2.52905" y1="4.27434" x2="16.5738" y2="17.1032" gradientUnits="userSpaceOnUse">
<stop stop-color="#FF5B72"/>
<stop offset="1" stop-color="#803DED"/>
</linearGradient>
<clipPath id="clip0_62_1482">
<rect width="20" height="20" fill="white"/>
</clipPath>
</defs>
</svg>
