<svg width="48" height="48" viewBox="0 0 48 48" fill="none" xmlns="http://www.w3.org/2000/svg">
<rect width="48" height="48" rx="12" fill="#76B900"/>
<path d="M10.4738 22.4709C10.4738 22.4709 13.5479 18.0357 19.6858 17.5769V15.9678C12.8873 16.5017 7 22.1323 7 22.1323C7 22.1323 10.3344 31.5581 19.6858 32.4212V30.7108C12.8233 29.8666 10.4738 22.4709 10.4738 22.4709ZM19.6858 27.3094V28.8758C14.4993 27.9716 13.0596 22.6996 13.0596 22.6996C13.0596 22.6996 15.5499 20.002 19.6858 19.5645V21.2832C19.6826 21.2832 19.6805 21.2823 19.6779 21.2823C17.5071 21.0276 15.8113 23.0105 15.8113 23.0105C15.8113 23.0105 16.7618 26.3488 19.6858 27.3094ZM19.6858 13V15.9678C19.8854 15.9529 20.0849 15.9402 20.2856 15.9335C28.0148 15.6788 33.0509 22.1323 33.0509 22.1323C33.0509 22.1323 27.2668 29.0099 21.2407 29.0099C20.6884 29.0099 20.1714 28.9598 19.6858 28.8756V30.7108C20.101 30.7624 20.5316 30.7927 20.9809 30.7927C26.5885 30.7927 30.6438 27.9923 34.5706 24.6778C35.2216 25.1877 37.887 26.4281 38.4349 26.9711C34.7013 30.0277 25.9999 32.4917 21.0668 32.4917C20.5913 32.4917 20.1347 32.4635 19.6858 32.4212V35H41V13H19.6858ZM19.6858 19.5645V17.5769C19.8833 17.5634 20.0823 17.5531 20.2856 17.5468C25.8436 17.3761 29.4901 22.2173 29.4901 22.2173C29.4901 22.2173 25.5516 27.5662 21.3287 27.5662C20.7209 27.5662 20.1762 27.4707 19.6858 27.3094V21.2832C21.8495 21.5389 22.2849 22.4735 23.5858 24.5941L26.479 22.2085C26.479 22.2085 24.367 19.5 20.8067 19.5C20.4197 19.4999 20.0494 19.5264 19.6858 19.5645Z" fill="white"/>
</svg>
